<svg width="244" height="62" viewBox="0 0 244 62" fill="none" xmlns="http://www.w3.org/2000/svg">
<path fill-rule="evenodd" clip-rule="evenodd" d="M227.847 2.34668H13.0496C12.0794 2.34668 11.1577 2.4437 10.1875 2.58922C9.26586 2.73475 8.34419 3.02581 7.51954 3.46239C6.69489 3.89897 5.91874 4.48107 5.23962 5.11169C4.56049 5.79081 4.02689 6.51844 3.59031 7.3916C3.15373 8.21626 2.86268 9.13793 2.71715 10.0596C2.57163 10.9813 2.47461 11.9514 2.47461 12.9216C2.47461 13.1157 2.47461 13.3097 2.47461 13.6007V13.8433C2.47461 14.0373 2.47461 14.1343 2.47461 14.2799V47.7995C2.47461 47.9451 2.47461 47.9936 2.47461 48.2361V48.4301C2.47461 48.7212 2.47461 48.9152 2.47461 49.1093C2.47461 50.0795 2.57163 51.0011 2.71715 51.9713C2.86268 52.893 3.15373 53.8146 3.59031 54.6393C4.02689 55.464 4.56049 56.2401 5.23962 56.8707C5.91874 57.5498 6.64638 58.0834 7.51954 58.52C8.34419 58.9566 9.26586 59.2476 10.1875 59.3932C11.1092 59.5387 12.0794 59.6357 13.0496 59.6357H14.3593H229.351H230.709C231.679 59.6357 232.601 59.5387 233.571 59.3932C234.493 59.2476 235.414 58.9566 236.239 58.52C237.064 58.0834 237.84 57.5498 238.519 56.8707C239.198 56.1916 239.732 55.464 240.168 54.6393C240.605 53.8146 240.896 52.893 241.041 51.9713C241.187 51.0496 241.284 50.0795 241.333 49.1093V47.7995C241.333 47.7025 241.333 47.6055 241.333 47.46C241.333 47.1204 241.333 46.8294 241.333 46.1987V15.8322C241.333 15.056 241.333 14.7165 241.333 14.2314V12.9216C241.333 11.9514 241.235 11.0298 241.041 10.0596C240.896 9.13793 240.605 8.21626 240.168 7.3916C239.295 5.69379 237.937 4.33555 236.239 3.46239C235.414 3.02581 234.493 2.73475 233.571 2.58922C232.649 2.4437 231.679 2.34668 230.709 2.34668H227.847Z" fill="black" stroke="black" stroke-width="3.67045"/>
<path fill-rule="evenodd" clip-rule="evenodd" d="M131.845 29.0789C132.621 29.4669 133.591 29.1759 133.979 28.3997C134.367 27.6721 134.125 26.7989 133.445 26.3139C127.139 22.5787 117.195 22.1906 111.18 24.0339C110.355 24.325 109.919 25.2467 110.21 26.0713C110.501 26.8474 111.277 27.284 112.102 27.09C117.34 25.5377 126.363 25.8288 131.845 29.0789ZM131.651 33.9297C132.039 33.2991 131.845 32.4745 131.214 32.0864C125.975 28.8363 118.311 27.9632 112.15 29.8065C111.471 30.049 111.083 30.8252 111.374 31.5043C111.616 32.1349 112.296 32.523 112.926 32.329C118.311 30.6797 125.247 31.5043 129.856 34.3178C130.438 34.7544 131.263 34.5604 131.651 33.9297ZM129.565 38.5866C129.856 38.1015 129.71 37.4224 129.225 37.1313C124.762 34.3663 119.184 33.7357 112.732 35.2395C112.15 35.4335 111.859 36.0156 112.005 36.5492C112.15 37.0828 112.684 37.3739 113.169 37.2769C119.087 35.9186 124.035 36.4522 128.061 38.9262C128.643 39.2172 129.274 39.0717 129.565 38.5866ZM121.803 13.9441C131.214 13.8956 138.927 21.5115 138.975 30.9222C139.024 40.3329 131.408 48.0458 121.997 48.0944C112.587 48.1429 104.874 40.527 104.825 31.1162C104.825 31.0677 104.825 31.0677 104.825 31.0192C104.825 21.657 112.393 13.9926 121.803 13.9441ZM151.006 29.7095C154.595 30.5826 156.051 31.9409 156.051 34.4148C156.051 37.3254 153.868 39.1687 150.424 39.1687C148.047 39.1687 145.718 38.2956 143.972 36.6948C143.875 36.5977 143.875 36.5007 143.972 36.4037L145.573 34.4634C145.621 34.4148 145.67 34.4148 145.718 34.4148C145.767 34.4148 145.815 34.4148 145.864 34.4634C147.125 35.6761 148.774 36.4037 150.521 36.4037C152.073 36.4037 152.995 35.7246 152.995 34.6574C152.995 33.5902 152.509 33.1536 149.744 32.4745C146.446 31.6498 144.554 30.6311 144.554 27.7206C144.554 25.0041 146.737 23.0638 149.938 23.0638C151.976 23.0152 153.965 23.7429 155.566 25.0041C155.663 25.0526 155.663 25.1981 155.614 25.2467L154.159 27.284C154.11 27.3325 154.062 27.3325 154.013 27.381C153.965 27.381 153.916 27.381 153.868 27.381C152.752 26.4594 151.345 25.9258 149.89 25.8773C148.532 25.8773 147.61 26.5079 147.61 27.5266C147.61 28.5453 148.047 29.0304 151.006 29.7095ZM166.189 33.0081C166.189 30.9707 164.879 29.5154 163.133 29.5154C161.338 29.5154 159.98 31.0192 159.98 33.0081C159.98 34.9969 161.338 36.5007 163.133 36.5007C164.928 36.5007 166.189 35.094 166.189 33.0081ZM163.715 26.7989C166.48 26.7989 169.245 28.9333 169.245 33.0081C169.245 37.0828 166.48 39.2172 163.715 39.2172C162.308 39.2657 160.95 38.6351 160.028 37.5194V42.2733C160.028 42.3703 159.931 42.4673 159.834 42.4673H157.215C157.118 42.4673 157.021 42.3703 157.021 42.2733V27.284C157.021 27.187 157.118 27.09 157.215 27.09H159.834C159.931 27.09 160.028 27.187 160.028 27.284V28.6423C160.901 27.4296 162.26 26.7989 163.715 26.7989ZM176.327 36.5492C178.122 36.5492 179.626 35.094 179.626 33.2991C179.626 33.2506 179.626 33.1536 179.626 33.1051C179.723 31.2618 178.316 29.661 176.473 29.5639C176.424 29.5639 176.376 29.5639 176.327 29.5639C174.532 29.5639 173.077 31.0192 173.077 32.8141C173.077 32.9111 173.077 32.9596 173.077 33.0566C172.98 34.8999 174.387 36.5007 176.23 36.5977C176.279 36.5492 176.327 36.5492 176.327 36.5492ZM176.327 26.7989C179.771 26.8474 182.488 29.661 182.439 33.1051C182.391 36.5492 179.577 39.2657 176.133 39.2172C172.786 39.1687 170.07 36.4037 170.021 33.0566C169.973 29.661 172.738 26.8474 176.133 26.7989C176.23 26.7989 176.279 26.7989 176.327 26.7989ZM190.201 27.0415C190.298 27.0415 190.395 27.1385 190.395 27.2355V29.5154C190.395 29.6125 190.298 29.7095 190.201 29.7095H187.29V35.1425C187.29 36.0156 187.678 36.4037 188.503 36.4037C189.037 36.4037 189.57 36.2582 190.055 36.0156C190.152 35.9671 190.249 36.0156 190.298 36.1126C190.298 36.1612 190.298 36.1612 190.298 36.2097V38.3926C190.298 38.4411 190.249 38.5381 190.201 38.5381C189.473 38.9747 188.6 39.1687 187.727 39.1687C185.398 39.1687 184.234 37.956 184.234 35.5791V29.7095H182.973C182.876 29.7095 182.779 29.6125 182.779 29.5154V27.2355C182.779 27.1385 182.876 27.0415 182.973 27.0415H184.283V24.0824C184.283 23.9854 184.38 23.8884 184.477 23.8884H187.096C187.193 23.8884 187.29 23.9854 187.29 24.0824V27.0415H190.201ZM200.242 27.0415H204.705C204.802 27.0415 204.851 27.09 204.899 27.187L207.955 35.2395L210.769 27.187C210.817 27.09 210.866 27.0415 210.963 27.0415H213.679C213.728 27.0415 213.776 27.09 213.825 27.1385C213.873 27.187 213.873 27.2355 213.825 27.3325L209.265 39.1687C208.343 41.5942 207.276 42.5158 205.336 42.5158C204.365 42.5158 203.395 42.2733 202.522 41.7882C202.425 41.7397 202.377 41.6427 202.425 41.5457L203.298 39.5568C203.298 39.5083 203.347 39.4598 203.395 39.4598C203.444 39.4598 203.492 39.4598 203.541 39.4598C203.977 39.7023 204.462 39.8478 204.996 39.8963C205.578 39.8963 206.015 39.7023 206.403 38.7806L202.668 29.758H200.242V38.8292C200.242 38.9262 200.145 39.0232 200.048 39.0232H197.429C197.332 39.0232 197.235 38.9262 197.235 38.8292V29.8065H195.973C195.876 29.8065 195.779 29.7095 195.779 29.6125V27.3325C195.779 27.2355 195.876 27.1385 195.973 27.1385H197.235V26.4594C197.235 23.8884 198.496 22.4816 200.921 22.4816C201.649 22.4816 202.377 22.5787 203.104 22.7727C203.201 22.8212 203.25 22.8697 203.25 22.9667V25.1496C203.25 25.1981 203.201 25.2467 203.153 25.2952C203.104 25.3437 203.056 25.3437 202.959 25.2952C202.474 25.1011 201.989 25.0041 201.503 25.0041C200.582 25.0041 200.194 25.4892 200.194 26.5564L200.242 27.0415ZM194.421 27.0415C194.518 27.0415 194.615 27.1385 194.615 27.2355V38.7321C194.615 38.8292 194.518 38.9262 194.421 38.9262H191.802C191.705 38.9262 191.608 38.8292 191.608 38.7321V27.2355C191.608 27.1385 191.705 27.0415 191.802 27.0415H194.421ZM193.111 21.8025C194.179 21.8025 195.003 22.6272 195.003 23.6944C195.003 24.7616 194.179 25.5862 193.111 25.5862C192.044 25.5862 191.22 24.7616 191.22 23.6944C191.22 22.6757 192.093 21.8025 193.111 21.8025ZM216.202 28.2057H215.717V28.8363H216.202C216.444 28.8363 216.59 28.7393 216.59 28.5453C216.59 28.3512 216.444 28.2057 216.202 28.2057ZM216.541 29.0789L217.075 29.8065H216.638L216.153 29.1274H215.765V29.8065H215.377V27.8661H216.299C216.735 27.8661 217.026 28.1087 217.026 28.4968C216.978 28.7878 216.784 29.0303 216.541 29.0789ZM216.105 27.2355C215.183 27.2355 214.407 27.9632 214.407 28.8848C214.407 29.8065 215.134 30.5826 216.056 30.5826C216.978 30.5826 217.754 29.855 217.754 28.9333C217.754 28.9333 217.754 28.9333 217.754 28.8848C217.802 27.9632 217.075 27.2355 216.105 27.2355C216.153 27.2355 216.153 27.2355 216.105 27.2355ZM216.105 30.7282C215.086 30.7282 214.213 29.9035 214.213 28.8848C214.213 27.8661 215.037 26.993 216.056 26.993C217.075 26.993 217.948 27.8176 217.948 28.8363C217.996 29.9035 217.172 30.7282 216.105 30.7282Z" fill="#55B25B"/>
<path fill-rule="evenodd" clip-rule="evenodd" d="M30.6095 35.2389H24.9824V26.5073H26.6802V33.6381H30.5609L30.6095 35.2389ZM34.6357 35.2389H32.8894V26.5073H34.6357V35.2389ZM43.7069 28.5931L42.1546 29.0782C42.0091 28.3021 41.3299 27.7685 40.5538 27.8655C39.8747 27.817 39.244 28.3021 39.1955 28.9812C39.1955 29.4663 39.4866 29.8544 40.1657 29.9514L41.3784 30.1939C42.9792 30.485 43.8039 31.5522 43.8039 32.7649C43.8039 33.9776 42.6882 35.4814 40.6508 35.4814C38.3224 35.4814 37.3037 33.9776 37.1582 32.7649L38.759 32.3283C38.8075 33.2985 39.6321 34.0261 40.6023 33.9776C40.6508 33.9776 40.6508 33.9776 40.6993 33.9776C41.621 33.9776 42.1546 33.5411 42.1546 32.9104C42.1546 32.4253 41.7665 31.9888 41.0874 31.8917L39.8747 31.6492C38.5649 31.5037 37.5947 30.4365 37.5947 29.1267C37.6918 27.5259 39.05 26.3132 40.6508 26.3617C42.6882 26.3132 43.5128 27.5745 43.7069 28.5931ZM52.9236 28.108H50.1585V35.2389H48.4607V28.108H45.6957V26.4587H52.9721V28.108H52.9236ZM60.7335 35.2389H55.252V26.4587H60.7335V28.108H56.9498V30.0969H60.3454V31.6007H56.9498V33.5896H60.7335V35.2389ZM70.9689 35.2389H69.174L65.1963 29.0297V35.2389H63.4985V26.5073H65.6329L69.2711 32.3283V26.5073H70.9689V35.2389ZM79.2154 30.9216C79.1184 32.4253 80.2826 33.7351 81.7864 33.7836C83.2901 33.8806 84.5999 32.7164 84.6484 31.2126C84.6484 31.1156 84.6484 31.0186 84.6484 30.9216C84.7454 29.4178 83.5812 28.1081 82.0774 28.0595C80.5736 27.9625 79.2639 29.1267 79.2154 30.6305C79.2154 30.7275 79.2154 30.8245 79.2154 30.9216ZM77.4691 30.9216C77.372 28.4476 79.3124 26.3617 81.7864 26.2647C84.2603 26.1677 86.3462 28.1081 86.4432 30.582C86.4432 30.679 86.4432 30.8245 86.4432 30.9216C86.5402 33.3955 84.5999 35.4814 82.1259 35.5784C79.652 35.6754 77.5661 33.7351 77.4691 31.2611C77.4691 31.1641 77.4691 31.0186 77.4691 30.9216ZM96.5816 35.2389H94.7867L90.809 29.0297V35.2389H89.1112V26.4587H91.2456L94.8838 32.2798V26.4587H96.5816V35.2389Z" fill="white"/>
</svg>
